<?xml version="1.0" encoding="UTF-8" standalone="no"?>
<!DOCTYPE svg PUBLIC "-//W3C//DTD SVG 1.1//EN" "http://www.w3.org/Graphics/SVG/1.1/DTD/svg11.dtd">
<svg width="100%" height="100%" viewBox="0 0 100 100" version="1.1" xmlns="http://www.w3.org/2000/svg" xmlns:xlink="http://www.w3.org/1999/xlink" xml:space="preserve" xmlns:serif="http://www.serif.com/" style="fill-rule:evenodd;clip-rule:evenodd;stroke-linecap:round;stroke-linejoin:round;stroke-miterlimit:1.5;">
    <path d="M100.044,0.153L0.256,99.941L99.932,99.941L100.044,0.153Z" style="stroke:black;stroke-width:1px;"/>
    <g transform="matrix(0.1014,0,0,0.1014,7.84761,8.42367)">
        <path d="M796.75,334.078C802.515,308.37 799.441,284.07 796.469,260.566C793.929,240.495 791.534,221.542 795.157,203.942C803.745,162.221 777.115,116.428 752.954,81.193C726.001,41.887 696.835,36.311 658.57,32.724C656.501,32.531 654.388,32.431 652.291,32.431C626.614,32.431 605.165,46.801 593.641,54.521C590.651,56.524 587.561,58.595 586.655,58.777C585.222,59.063 581.865,59.107 577.619,59.165C566.215,59.316 547.13,59.571 524.405,64.439C502.262,69.184 484.518,80.463 484.849,89.581C484.973,93.035 487.499,97.485 498.828,99.068C522.565,102.386 543.552,108.816 560.415,113.982C563.749,115.003 566.876,115.962 569.777,116.816C588.023,122.201 604.877,129.559 610.648,160.068C614.663,181.284 578.185,205.627 546.005,227.106C532.656,236.014 520.05,244.429 509.895,252.679C474.483,281.453 406.961,339.767 385.33,360.259C364.827,379.683 192.402,497.907 146.053,520.516C98.69,543.621 52.53,579.839 40.964,602.97C38.371,608.155 37.816,611.44 39.161,613.618C39.75,614.568 40.964,615.7 43.412,615.7C46.326,615.7 50.317,614.019 53.76,612.39C53.765,612.807 53.842,613.236 54.024,613.673C55.052,616.157 58.364,616.474 61.134,616.474C68.705,616.474 84.487,613.365 103.733,608.104C96.821,613.214 83.106,622.01 70.627,630.014C21.298,661.667 -0.608,677.038 0.013,684.471C0.355,688.589 3.076,693.496 14.097,693.496C20.863,693.496 29.106,691.758 35.732,690.362C39.17,689.639 42.149,689.01 44.207,688.771C43.456,690.344 41.532,693.05 40.167,694.972C35.745,701.192 31.173,707.625 34.429,711.695C35.406,712.918 37.068,713.513 39.505,713.513C46.797,713.513 62.37,708.104 77.431,702.872C88.183,699.137 98.337,695.61 104.475,694.382C113.846,692.509 159.274,668.983 203.203,646.231C235.978,629.257 273.127,610.02 277.124,609.58C284.909,609.58 347.798,604.992 387.466,593.656C396.306,591.13 405.751,589.85 415.538,589.85C439.33,589.85 462.297,597.248 481.974,604.595C481.852,609.385 481.732,615.253 481.608,622.458C481.273,642.225 481.124,662.696 481.173,668.106C481.237,675.661 495.505,688.995 515.653,707.005C523.941,714.414 534.114,723.511 535.983,726.782C532.607,728.882 527.431,728.944 521.011,729.022C509.798,729.157 494.442,729.342 478.514,741.488C469.238,748.562 463.105,758.677 461.713,763.602C461.582,764.057 461.194,765.44 462.051,766.574C462.528,767.202 463.26,767.564 464.062,767.564C464.73,767.564 465.402,767.316 466.126,766.805L467.762,765.635C472.958,761.913 485.124,753.194 491.659,750.708C500.491,747.348 506.979,745.978 514.059,745.978C523.355,745.978 534.343,748.366 551.363,752.777C561.786,755.476 570.685,756.79 578.567,756.79C588.82,756.79 596.264,754.619 604.144,752.322C613.314,749.649 622.791,746.886 638.289,746.886C641.168,746.886 644.204,746.983 647.316,747.179C664.295,748.242 679.506,757.083 686.817,761.331C689.965,763.16 690.917,763.713 691.947,763.713L693.514,763.651L694.102,762.341C694.873,760.63 693.905,759.542 689.259,754.308C681.455,745.521 674.152,740.145 667.094,736.669C671.409,735.83 675.393,734.68 679.488,733.486C688.658,730.813 698.135,728.05 713.631,728.05C716.51,728.05 719.546,728.147 722.658,728.343C739.636,729.406 754.85,738.247 762.159,742.493C765.309,744.324 766.261,744.875 767.291,744.875L768.858,744.813L769.446,743.503C770.217,741.792 769.249,740.704 764.603,735.47C748.08,716.863 733.774,713.436 719.362,711.331C713.702,710.508 709.422,708.606 708.956,706.71C708.572,705.158 710.674,702.533 714.581,699.687C721.511,694.64 728.48,692.08 735.297,692.08C747.374,692.08 754.888,700.009 755.705,703.023C756.073,704.39 757.154,704.874 757.971,704.874C758.803,704.874 759.902,704.368 760.257,702.948C760.925,700.293 760.124,688.66 750.297,683.397C745.39,680.767 737.794,679.319 728.909,679.319C707.92,679.319 685.084,686.702 666.268,699.321C662.519,698.562 658.228,698.153 653.567,698.153C652.273,698.153 650.97,698.193 649.665,698.249C633.592,685.401 605.309,655.498 603.68,645.328C602.608,638.622 601.982,617.435 601.982,596.946L601.982,596.717C615.3,590.094 628.82,582.289 644.5,573.064C722.987,526.904 786.112,381.539 796.75,334.078ZM556.726,619.022C556.55,633.068 556.479,645.27 556.515,649.272C556.581,656.825 570.847,670.159 590.993,688.169C598.828,695.172 608.335,703.674 610.934,707.349C609.172,708.1 607.423,708.888 605.691,709.722C603.01,710.095 599.878,710.144 596.355,710.186C589.095,710.275 580.096,710.404 570.332,713.764C554.013,699.667 530.121,673.539 528.618,664.17C527.806,659.089 527.508,645.687 527.34,630.576C533.821,628.354 543.474,624.814 556.726,619.022Z" style="fill:rgb(108,108,108);fill-rule:nonzero;"/>
    </g>
</svg>
